<svg width="15" height="15" viewBox="0 0 15 15" fill="none" xmlns="http://www.w3.org/2000/svg">
<path d="M8.76914 2.94959L12.9879 7.16834C13.0315 7.21188 13.066 7.26358 13.0896 7.32048C13.1132 7.37739 13.1254 7.43838 13.1254 7.49998C13.1254 7.56158 13.1132 7.62258 13.0896 7.67949C13.066 7.73639 13.0315 7.78809 12.9879 7.83162L8.76914 12.0504C8.68118 12.1383 8.56189 12.1877 8.4375 12.1877C8.31311 12.1877 8.19382 12.1383 8.10586 12.0504C8.0179 11.9624 7.96849 11.8431 7.96849 11.7187C7.96849 11.5943 8.0179 11.475 8.10586 11.3871L11.5248 7.96873H2.34375C2.21943 7.96873 2.1002 7.91935 2.01229 7.83144C1.92439 7.74353 1.875 7.6243 1.875 7.49998C1.875 7.37566 1.92439 7.25643 2.01229 7.16853C2.1002 7.08062 2.21943 7.03123 2.34375 7.03123H11.5248L8.10586 3.61287C8.0179 3.52492 7.96849 3.40562 7.96849 3.28123C7.96849 3.15684 8.0179 3.03755 8.10586 2.94959C8.19382 2.86164 8.31311 2.81222 8.4375 2.81222C8.56189 2.81222 8.68118 2.86164 8.76914 2.94959Z" fill="white"/>
</svg>
