<svg width="35" height="36" viewBox="0 0 35 36" fill="none" xmlns="http://www.w3.org/2000/svg">
<path d="M17.5 3.78125C14.6878 3.78125 11.9388 4.61517 9.60049 6.17754C7.26223 7.73992 5.43978 9.96058 4.36359 12.5587C3.28741 15.1569 3.00583 18.0158 3.55447 20.7739C4.1031 23.5321 5.4573 26.0656 7.44583 28.0542C9.43436 30.0427 11.9679 31.3969 14.7261 31.9455C17.4842 32.4942 20.3431 32.2126 22.9413 31.1364C25.5394 30.0602 27.7601 28.2378 29.3225 25.8995C30.8848 23.5612 31.7188 20.8122 31.7188 18C31.7148 14.2302 30.2155 10.6159 27.5498 7.95022C24.8841 5.28455 21.2698 3.78523 17.5 3.78125ZM18.5938 29.9807V21.2812H21.875C22.1651 21.2812 22.4433 21.166 22.6484 20.9609C22.8535 20.7558 22.9688 20.4776 22.9688 20.1875C22.9688 19.8974 22.8535 19.6192 22.6484 19.4141C22.4433 19.209 22.1651 19.0937 21.875 19.0937H18.5938V15.8125C18.5938 15.2323 18.8242 14.6759 19.2345 14.2657C19.6447 13.8555 20.2011 13.625 20.7813 13.625H22.9688C23.2588 13.625 23.537 13.5098 23.7422 13.3046C23.9473 13.0995 24.0625 12.8213 24.0625 12.5312C24.0625 12.2412 23.9473 11.963 23.7422 11.7579C23.537 11.5527 23.2588 11.4375 22.9688 11.4375H20.7813C19.6209 11.4375 18.5081 11.8984 17.6877 12.7189C16.8672 13.5394 16.4063 14.6522 16.4063 15.8125V19.0937H13.125C12.8349 19.0937 12.5567 19.209 12.3516 19.4141C12.1465 19.6192 12.0313 19.8974 12.0313 20.1875C12.0313 20.4776 12.1465 20.7558 12.3516 20.9609C12.5567 21.166 12.8349 21.2812 13.125 21.2812H16.4063V29.9807C13.323 29.6992 10.4669 28.2399 8.43205 25.9064C6.39723 23.5729 5.34034 20.5447 5.48122 17.4518C5.6221 14.3589 6.9499 11.4393 9.18843 9.30046C11.427 7.16157 14.4039 5.96798 17.5 5.96798C20.5961 5.96798 23.573 7.16157 25.8116 9.30046C28.0501 11.4393 29.3779 14.3589 29.5188 17.4518C29.6597 20.5447 28.6028 23.5729 26.568 25.9064C24.5331 28.2399 21.677 29.6992 18.5938 29.9807Z" fill="white" fill-opacity="0.7"/>
</svg>
