<svg width="35" height="36" viewBox="0 0 35 36" fill="none" xmlns="http://www.w3.org/2000/svg">
<path d="M17.5 11.4375C16.2021 11.4375 14.9333 11.8224 13.8541 12.5435C12.7749 13.2646 11.9337 14.2895 11.437 15.4886C10.9403 16.6878 10.8104 18.0073 11.0636 19.2803C11.3168 20.5533 11.9418 21.7226 12.8596 22.6404C13.7774 23.5582 14.9467 24.1832 16.2197 24.4364C17.4927 24.6896 18.8122 24.5597 20.0114 24.063C21.2105 23.5663 22.2354 22.7251 22.9565 21.6459C23.6776 20.5667 24.0625 19.2979 24.0625 18C24.0607 16.2601 23.3687 14.5919 22.1384 13.3616C20.9081 12.1313 19.2399 11.4393 17.5 11.4375ZM17.5 22.375C16.6347 22.375 15.7888 22.1184 15.0694 21.6377C14.3499 21.1569 13.7892 20.4737 13.458 19.6742C13.1269 18.8748 13.0403 17.9951 13.2091 17.1465C13.3779 16.2978 13.7946 15.5183 14.4064 14.9064C15.0183 14.2946 15.7978 13.8779 16.6465 13.7091C17.4951 13.5403 18.3748 13.6269 19.1742 13.958C19.9737 14.2892 20.6569 14.8499 21.1377 15.5694C21.6184 16.2888 21.875 17.1347 21.875 18C21.875 19.1603 21.4141 20.2731 20.5936 21.0936C19.7731 21.9141 18.6603 22.375 17.5 22.375ZM24.0625 3.78125H10.9375C8.9076 3.78342 6.96147 4.59076 5.52611 6.02611C4.09076 7.46147 3.28342 9.4076 3.28125 11.4375V24.5625C3.28342 26.5924 4.09076 28.5385 5.52611 29.9739C6.96147 31.4092 8.9076 32.2166 10.9375 32.2188H24.0625C26.0924 32.2166 28.0385 31.4092 29.4739 29.9739C30.9092 28.5385 31.7166 26.5924 31.7188 24.5625V11.4375C31.7166 9.4076 30.9092 7.46147 29.4739 6.02611C28.0385 4.59076 26.0924 3.78342 24.0625 3.78125ZM29.5312 24.5625C29.5312 26.0129 28.9551 27.4039 27.9295 28.4295C26.9039 29.4551 25.5129 30.0312 24.0625 30.0312H10.9375C9.4871 30.0312 8.0961 29.4551 7.07051 28.4295C6.04492 27.4039 5.46875 26.0129 5.46875 24.5625V11.4375C5.46875 9.9871 6.04492 8.5961 7.07051 7.57051C8.0961 6.54492 9.4871 5.96875 10.9375 5.96875H24.0625C25.5129 5.96875 26.9039 6.54492 27.9295 7.57051C28.9551 8.5961 29.5312 9.9871 29.5312 11.4375V24.5625ZM26.25 10.8906C26.25 11.2151 26.1538 11.5323 25.9735 11.8021C25.7932 12.0719 25.537 12.2822 25.2372 12.4064C24.9374 12.5305 24.6076 12.563 24.2893 12.4997C23.9711 12.4364 23.6787 12.2802 23.4493 12.0507C23.2198 11.8213 23.0636 11.5289 23.0003 11.2107C22.937 10.8924 22.9695 10.5626 23.0936 10.2628C23.2178 9.963 23.4281 9.70677 23.6979 9.52649C23.9677 9.34622 24.2849 9.25 24.6094 9.25C25.0445 9.25 25.4618 9.42285 25.7695 9.73053C26.0771 10.0382 26.25 10.4555 26.25 10.8906Z" fill="white" fill-opacity="0.7"/>
</svg>
