<svg width="35" height="36" viewBox="0 0 35 36" fill="none" xmlns="http://www.w3.org/2000/svg">
<path d="M29.5312 3.78125H5.46875C4.88859 3.78125 4.33219 4.01172 3.92195 4.42195C3.51172 4.83219 3.28125 5.38859 3.28125 5.96875V30.0312C3.28125 30.6114 3.51172 31.1678 3.92195 31.578C4.33219 31.9883 4.88859 32.2188 5.46875 32.2188H29.5312C30.1114 32.2188 30.6678 31.9883 31.078 31.578C31.4883 31.1678 31.7188 30.6114 31.7188 30.0312V5.96875C31.7188 5.38859 31.4883 4.83219 31.078 4.42195C30.6678 4.01172 30.1114 3.78125 29.5312 3.78125ZM29.5312 30.0312H5.46875V5.96875H29.5312V30.0312ZM13.125 15.8125V24.5625C13.125 24.8526 13.0098 25.1308 12.8046 25.3359C12.5995 25.541 12.3213 25.6562 12.0312 25.6562C11.7412 25.6562 11.463 25.541 11.2579 25.3359C11.0527 25.1308 10.9375 24.8526 10.9375 24.5625V15.8125C10.9375 15.5224 11.0527 15.2442 11.2579 15.0391C11.463 14.834 11.7412 14.7188 12.0312 14.7188C12.3213 14.7188 12.5995 14.834 12.8046 15.0391C13.0098 15.2442 13.125 15.5224 13.125 15.8125ZM25.1562 19.6406V24.5625C25.1562 24.8526 25.041 25.1308 24.8359 25.3359C24.6308 25.541 24.3526 25.6562 24.0625 25.6562C23.7724 25.6562 23.4942 25.541 23.2891 25.3359C23.084 25.1308 22.9688 24.8526 22.9688 24.5625V19.6406C22.9688 18.9154 22.6807 18.2199 22.1679 17.7071C21.6551 17.1943 20.9596 16.9062 20.2344 16.9062C19.5092 16.9062 18.8137 17.1943 18.3009 17.7071C17.7881 18.2199 17.5 18.9154 17.5 19.6406V24.5625C17.5 24.8526 17.3848 25.1308 17.1796 25.3359C16.9745 25.541 16.6963 25.6562 16.4062 25.6562C16.1162 25.6562 15.838 25.541 15.6329 25.3359C15.4277 25.1308 15.3125 24.8526 15.3125 24.5625V15.8125C15.3139 15.5446 15.4135 15.2865 15.5925 15.0872C15.7715 14.8879 16.0175 14.7612 16.2837 14.7312C16.5499 14.7012 16.8179 14.7699 17.0368 14.9244C17.2557 15.0788 17.4103 15.3083 17.4713 15.5691C18.2112 15.0672 19.0738 14.7763 19.9666 14.7277C20.8594 14.679 21.7485 14.8745 22.5386 15.2931C23.3286 15.7116 23.9898 16.3375 24.4509 17.1035C24.9121 17.8694 25.156 18.7465 25.1562 19.6406ZM13.6719 11.9844C13.6719 12.3089 13.5757 12.6261 13.3954 12.8959C13.2151 13.1657 12.9589 13.3759 12.6591 13.5001C12.3593 13.6243 12.0294 13.6568 11.7112 13.5935C11.3929 13.5302 11.1006 13.3739 10.8712 13.1445C10.6417 12.915 10.4855 12.6227 10.4221 12.3044C10.3588 11.9862 10.3913 11.6563 10.5155 11.3565C10.6397 11.0567 10.85 10.8005 11.1198 10.6202C11.3896 10.44 11.7068 10.3438 12.0312 10.3438C12.4664 10.3438 12.8837 10.5166 13.1913 10.8243C13.499 11.132 13.6719 11.5493 13.6719 11.9844Z" fill="white" fill-opacity="0.7"/>
</svg>
