<svg width="35" height="36" viewBox="0 0 35 36" fill="none" xmlns="http://www.w3.org/2000/svg">
<path d="M29.3603 29.4447L20.8018 15.9943L29.2469 6.7043C29.4379 6.489 29.5363 6.20709 29.5208 5.9197C29.5054 5.6323 29.3773 5.36259 29.1643 5.16902C28.9513 4.97546 28.6706 4.87364 28.383 4.88566C28.0955 4.89767 27.8242 5.02255 27.6281 5.2332L19.5836 14.0816L14.0479 5.38223C13.9491 5.22685 13.8128 5.09891 13.6515 5.01024C13.4902 4.92157 13.3091 4.87506 13.125 4.875H6.5625C6.36639 4.8749 6.17387 4.92754 6.00508 5.02739C5.8363 5.12724 5.69746 5.27063 5.60311 5.44255C5.50877 5.61447 5.46238 5.8086 5.46881 6.0046C5.47523 6.2006 5.53424 6.39127 5.63965 6.55664L14.1982 20.0057L5.75313 29.3025C5.65451 29.4085 5.57789 29.5329 5.52773 29.6687C5.47756 29.8045 5.45484 29.9488 5.46088 30.0934C5.46693 30.2381 5.50161 30.38 5.56293 30.5111C5.62424 30.6422 5.71097 30.7599 5.81808 30.8572C5.92519 30.9546 6.05056 31.0297 6.18692 31.0782C6.32328 31.1267 6.46791 31.1477 6.61244 31.14C6.75696 31.1322 6.89851 31.0958 7.02888 31.0329C7.15924 30.97 7.27582 30.8819 7.37187 30.7736L15.4164 21.9252L20.9521 30.6246C21.0517 30.7787 21.1883 30.9053 21.3496 30.9928C21.5109 31.0802 21.6916 31.1257 21.875 31.125H28.4375C28.6334 31.1249 28.8257 31.0723 28.9943 30.9725C29.1628 30.8727 29.3015 30.7295 29.3958 30.5578C29.4901 30.3861 29.5366 30.1922 29.5304 29.9964C29.5241 29.8006 29.4654 29.6101 29.3603 29.4447ZM22.4752 28.9375L8.55449 7.0625H12.5193L26.4455 28.9375H22.4752Z" fill="white" fill-opacity="0.7"/>
</svg>
